HIERARCHY
ROOT Hips
{
	OFFSET 0.000000 35.082581 0.000000
	CHANNELS 6 Xposition Yposition Zposition Xrotation Yrotation Zrotation 
	JOINT Spine
	{
		OFFSET 0.000000 6.876099 0.125700
		CHANNELS 3 Xrotation Yrotation Zrotation
		JOINT Spine1
		{
			OFFSET 0.000000 5.730043 0.104720
			CHANNELS 3 Xrotation Yrotation Zrotation
			JOINT Spine1_split
			{
				OFFSET 0.000000 5.730043 0.104720
				CHANNELS 3 Xrotation Yrotation Zrotation
				JOINT Spine2
				{
					OFFSET 0.000000 5.730043 0.104720
					CHANNELS 3 Xrotation Yrotation Zrotation
					JOINT Neck
					{
						OFFSET 0.000000 10.314075 0.188496
						CHANNELS 3 Xrotation Yrotation Zrotation
						JOINT Head
						{
							OFFSET 0.000000 7.643700 -2.377400
							CHANNELS 3 Xrotation Yrotation Zrotation
							JOINT HeadTop_End
							{
								OFFSET 0.000000 43.788605 -13.619600
								CHANNELS 3 Xrotation Yrotation Zrotation
								End Site
								{
									OFFSET 0.000000 0.000000 0.000000
								}
							}
						}
					}
					JOINT LeftShoulder
					{
						OFFSET 2.196100 4.412489 0.087492
						CHANNELS 3 Xrotation Yrotation Zrotation
						JOINT LeftShoulder_split
						{
							OFFSET 2.196100 4.412489 0.087492
							CHANNELS 3 Xrotation Yrotation Zrotation
							JOINT LeftArm
							{
								OFFSET 8.771219 -2.981674 -0.026999
								CHANNELS 3 Xrotation Yrotation Zrotation
								JOINT LeftForeArm
								{
									OFFSET 8.512804 0.000000 -0.000000
									CHANNELS 3 Xrotation Yrotation Zrotation
									JOINT LeftHand
									{
										OFFSET 18.484802 0.000000 -0.000000
										CHANNELS 3 Xrotation Yrotation Zrotation
										JOINT LeftHandThumb1
										{
											OFFSET 2.499420 -1.158070 2.653252
											CHANNELS 3 Xrotation Yrotation Zrotation
											JOINT LeftHandThumb2
											{
												OFFSET 2.370079 -1.368366 1.368366
												CHANNELS 3 Xrotation Yrotation Zrotation
												JOINT LeftHandThumb3
												{
													OFFSET 2.676727 -1.545410 1.545409
													CHANNELS 3 Xrotation Yrotation Zrotation
													JOINT LeftHandThumb4
													{
														OFFSET 1.692226 -0.977005 0.977007
														CHANNELS 3 Xrotation Yrotation Zrotation
														End Site
														{
															OFFSET 0.000000 0.000000 0.000000
														}
													}
												}
											}
										}
										JOINT LeftHandIndex1
										{
											OFFSET 7.924831 -0.457527 2.345128
											CHANNELS 3 Xrotation Yrotation Zrotation
											JOINT LeftHandIndex2
											{
												OFFSET 3.643303 0.000000 0.000000
												CHANNELS 3 Xrotation Yrotation Zrotation
												JOINT LeftHandIndex3
												{
													OFFSET 3.810799 0.000000 0.000000
													CHANNELS 3 Xrotation Yrotation Zrotation
													JOINT LeftHandIndex4
													{
														OFFSET 2.403702 0.000000 0.000000
														CHANNELS 3 Xrotation Yrotation Zrotation
														End Site
														{
															OFFSET 0.000000 0.000000 0.000000
														}
													}
												}
											}
										}
										JOINT LeftHandMiddle1
										{
											OFFSET 8.563995 0.000000 -0.000000
											CHANNELS 3 Xrotation Yrotation Zrotation
											JOINT LeftHandMiddle2
											{
												OFFSET 3.861618 0.000000 0.000000
												CHANNELS 3 Xrotation Yrotation Zrotation
												JOINT LeftHandMiddle3
												{
													OFFSET 3.701603 0.000000 0.000000
													CHANNELS 3 Xrotation Yrotation Zrotation
													JOINT LeftHandMiddle4
													{
														OFFSET 2.322544 0.000000 0.000000
														CHANNELS 3 Xrotation Yrotation Zrotation
														End Site
														{
															OFFSET 0.000000 0.000000 0.000000
														}
													}
												}
											}
										}
										JOINT LeftHandRing1
										{
											OFFSET 8.426460 -0.424637 -3.286992
											CHANNELS 3 Xrotation Yrotation Zrotation
											JOINT LeftHandRing2
											{
												OFFSET 3.126408 0.000000 0.000000
												CHANNELS 3 Xrotation Yrotation Zrotation
												JOINT LeftHandRing3
												{
													OFFSET 3.085026 0.000000 0.000000
													CHANNELS 3 Xrotation Yrotation Zrotation
													JOINT LeftHandRing4
													{
														OFFSET 1.644005 0.000000 0.000000
														CHANNELS 3 Xrotation Yrotation Zrotation
														End Site
														{
															OFFSET 0.000000 0.000000 0.000000
														}
													}
												}
											}
										}
									}
								}
							}
						}
					}
					JOINT RightShoulder
					{
						OFFSET -2.196100 4.412496 0.070690
						CHANNELS 3 Xrotation Yrotation Zrotation
						JOINT RightShoulder_split
						{
							OFFSET -2.196100 4.412496 0.070690
							CHANNELS 3 Xrotation Yrotation Zrotation
							JOINT RightArm
							{
								OFFSET -8.771282 -2.981682 -0.094208
								CHANNELS 3 Xrotation Yrotation Zrotation
								JOINT RightForeArm
								{
									OFFSET -8.494598 0.000000 0.000000
									CHANNELS 3 Xrotation Yrotation Zrotation
									JOINT RightHand
									{
										OFFSET -18.483803 0.000000 0.000001
										CHANNELS 3 Xrotation Yrotation Zrotation
										JOINT RightHandThumb1
										{
											OFFSET -2.527351 -1.008072 2.575253
											CHANNELS 3 Xrotation Yrotation Zrotation
											JOINT RightHandThumb2
											{
												OFFSET -2.321518 -1.340328 1.340329
												CHANNELS 3 Xrotation Yrotation Zrotation
												JOINT RightHandThumb3
												{
													OFFSET -2.657753 -1.534454 1.534455
													CHANNELS 3 Xrotation Yrotation Zrotation
													JOINT RightHandThumb4
													{
														OFFSET -1.807510 -1.043568 1.043567
														CHANNELS 3 Xrotation Yrotation Zrotation
														End Site
														{
															OFFSET 0.000000 0.000000 0.000000
														}
													}
												}
											}
										}
										JOINT RightHandIndex1
										{
											OFFSET -8.811420 0.015533 2.887987
											CHANNELS 3 Xrotation Yrotation Zrotation
											JOINT RightHandIndex2
											{
												OFFSET -3.537502 0.000000 0.000000
												CHANNELS 3 Xrotation Yrotation Zrotation
												JOINT RightHandIndex3
												{
													OFFSET -3.356201 0.000000 0.000000
													CHANNELS 3 Xrotation Yrotation Zrotation
													JOINT RightHandIndex4
													{
														OFFSET -1.933098 0.000000 0.000000
														CHANNELS 3 Xrotation Yrotation Zrotation
														End Site
														{
															OFFSET 0.000000 0.000000 0.000000
														}
													}
												}
											}
										}
										JOINT RightHandMiddle1
										{
											OFFSET -8.178135 0.000000 0.000000
											CHANNELS 3 Xrotation Yrotation Zrotation
											JOINT RightHandMiddle2
											{
												OFFSET -3.901302 0.000000 0.000000
												CHANNELS 3 Xrotation Yrotation Zrotation
												JOINT RightHandMiddle3
												{
													OFFSET -3.909599 0.000000 0.000000
													CHANNELS 3 Xrotation Yrotation Zrotation
													JOINT RightHandMiddle4
													{
														OFFSET -2.376003 0.000000 0.000000
														CHANNELS 3 Xrotation Yrotation Zrotation
														End Site
														{
															OFFSET 0.000000 0.000000 0.000000
														}
													}
												}
											}
										}
										JOINT RightHandRing1
										{
											OFFSET -7.559013 0.014137 -2.865403
											CHANNELS 3 Xrotation Yrotation Zrotation
											JOINT RightHandRing2
											{
												OFFSET -3.449306 0.000000 0.000000
												CHANNELS 3 Xrotation Yrotation Zrotation
												JOINT RightHandRing3
												{
													OFFSET -3.362106 0.000000 0.000000
													CHANNELS 3 Xrotation Yrotation Zrotation
													JOINT RightHandRing4
													{
														OFFSET -2.076401 0.000000 0.000000
														CHANNELS 3 Xrotation Yrotation Zrotation
														End Site
														{
															OFFSET 0.000000 0.000000 0.000000
														}
													}
												}
											}
										}
									}
								}
							}
						}
					}
				}
			}
		}
	}
	JOINT LeftUpLeg
	{
		OFFSET 10.205400 -3.823500 0.155100
		CHANNELS 3 Xrotation Yrotation Zrotation
		JOINT LeftLeg
		{
			OFFSET 0.708757 -12.982077 0.567790
			CHANNELS 3 Xrotation Yrotation Zrotation
			JOINT LeftFoot
			{
				OFFSET -0.708756 -10.717838 -2.184338
				CHANNELS 3 Xrotation Yrotation Zrotation
				JOINT LeftToeBase
				{
					OFFSET 0.108149 -7.191104 7.560241
					CHANNELS 3 Xrotation Yrotation Zrotation
					JOINT LeftToe_End
					{
						OFFSET 0.070230 0.081724 4.490308
						CHANNELS 3 Xrotation Yrotation Zrotation
						End Site
						{
							OFFSET 0.000000 0.000000 0.000000
						}
					}
				}
			}
		}
	}
	JOINT RightUpLeg
	{
		OFFSET -10.205400 -3.823500 0.005500
		CHANNELS 3 Xrotation Yrotation Zrotation
		JOINT RightLeg
		{
			OFFSET -0.708756 -12.982134 0.610632
			CHANNELS 3 Xrotation Yrotation Zrotation
			JOINT RightFoot
			{
				OFFSET 0.708754 -10.717769 -1.945823
				CHANNELS 3 Xrotation Yrotation Zrotation
				JOINT RightToeBase
				{
					OFFSET -0.108140 -7.191069 7.372968
					CHANNELS 3 Xrotation Yrotation Zrotation
					JOINT RightToe_End
					{
						OFFSET -0.070227 0.081735 4.479403
						CHANNELS 3 Xrotation Yrotation Zrotation
						End Site
						{
							OFFSET 0.000000 0.000000 0.000000
						}
					}
				}
			}
		}
	}
}
MOTION
Frames: 4
Frame Time: 0.016667
5.728646 27.625755 28.808636 -196.539171 47.495886 186.226064 12.763741 3.719426 -3.591503 11.924107 11.118058 -15.175186 0.000000 0.000000 0.000000 1.101641 14.665745 -10.905808 10.816972 7.709369 8.813435 -10.499598 11.214110 -3.938372 0.000002 -0.000000 -0.000000 0.441623 12.913617 -8.023867 0.000000 0.000000 0.000000 24.289876 30.045162 -67.066652 -59.876648 -28.113462 -29.309513 -3.278536 20.437915 28.775573 14.303291 -13.828701 17.477155 -1.153287 11.257890 -8.413979 5.706537 8.483127 -0.820704 -0.000000 0.000002 -0.000000 -1.170666 -7.739181 -1.295037 -0.043946 -0.937991 -21.136831 0.078795 -0.197833 -2.210121 -0.000000 0.000001 0.000002 1.351882 3.178804 -22.421054 0.508245 -1.065584 -16.741333 0.662320 -1.351742 -20.312452 -0.000001 0.000001 0.000002 1.727801 5.794794 -31.799155 -0.855265 -0.880766 -22.637689 -0.896789 -1.043615 -25.799522 0.000002 -0.000001 0.000000 1.206002 17.292714 2.836869 0.000000 0.000000 0.000000 -64.233360 30.995521 72.958086 51.591134 12.758267 4.090897 2.838915 31.571846 -10.829780 55.149577 18.649528 -29.698287 -0.442574 -14.180531 7.313129 21.666992 -29.244500 9.142373 -0.000000 0.000000 -0.000000 5.673386 7.585035 36.844158 1.050469 3.824474 68.900237 0.499587 3.026030 62.196461 -0.000000 -0.000002 0.000004 -0.125684 1.886113 45.000763 -1.168996 3.204638 68.417622 -0.936405 1.813614 41.107555 -0.000001 -0.000001 0.000003 -5.312002 1.216663 58.508814 -0.745208 1.667579 48.011298 -0.816475 1.840616 53.666562 -0.000001 -0.000000 0.000000 -67.799989 -14.180862 16.668371 27.953391 -42.351510 3.713565 12.388204 -2.519086 -33.026622 0.568322 1.852910 -4.333526 0.000000 -0.000002 0.000000 -9.780237 -28.576634 -27.310204 41.508374 -0.787864 7.607966 -29.313625 -13.213404 28.508667 0.120143 -2.136007 0.002644 0.000000 -0.000001 -0.000000 
5.668762 27.765274 28.729748 -196.907414 49.687960 186.874973 12.620793 3.600300 -3.504747 11.663237 11.031784 -15.073990 0.000000 0.000000 0.000000 0.830136 14.573228 -10.818432 11.049074 7.758150 8.929905 -10.080371 11.211610 -3.802283 -0.000000 0.000000 0.000000 0.560207 12.569489 -8.809888 0.000000 0.000000 0.000000 21.591051 29.149608 -64.927211 -59.006954 -28.841724 -29.005344 -2.755796 20.006140 26.728940 15.094008 -13.012298 16.727408 -1.153517 11.258006 -8.413064 5.706535 8.483129 -0.820705 -0.000002 -0.000002 -0.000004 -1.291520 -7.470759 -5.110739 -0.002012 -0.823181 -18.506051 0.076674 -0.234258 -2.984802 0.000000 0.000000 -0.000003 1.303960 3.063943 -24.663260 0.471290 -1.179141 -19.128373 0.618082 -1.462966 -22.699847 -0.000003 -0.000000 0.000000 1.653448 5.671088 -34.035809 -0.906816 -0.999022 -25.024310 -0.958281 -1.162627 -28.186271 0.000002 -0.000000 -0.000001 1.220478 16.569694 3.011188 0.000000 0.000000 0.000000 -64.817867 30.099991 76.400898 53.142949 8.465454 3.719467 2.148537 35.073387 -9.633440 55.149574 18.649536 -29.698287 -0.442576 -14.180533 7.313131 21.666992 -29.244497 9.142379 -0.000002 0.000001 0.000002 5.673384 7.585039 36.844161 1.050474 3.824476 68.900237 0.499588 3.026029 62.196461 0.000001 -0.000003 0.000001 -0.125684 1.886112 45.000766 -1.168995 3.204637 68.417622 -0.936409 1.813615 41.107555 -0.000001 -0.000001 -0.000001 -5.311999 1.216657 58.508821 -0.745206 1.667576 48.011298 -0.816468 1.840618 53.666569 0.000002 0.000000 -0.000001 -67.070928 -14.504993 17.986743 30.976609 -41.077301 3.997780 10.291988 -1.709278 -31.705267 0.463466 1.839607 -4.426870 0.000000 -0.000000 -0.000000 -12.199076 -27.946614 -28.904954 41.598656 1.209626 7.921016 -28.545789 -12.453372 27.116647 0.119870 -2.068507 0.002519 0.000000 0.000001 0.000000 
5.599866 27.876740 28.641312 -197.453037 51.977992 187.657521 12.440583 3.461831 -3.419540 11.349587 10.896058 -14.949141 0.000000 0.000000 0.000000 0.503247 14.434857 -10.712581 11.312813 7.850707 9.045666 -9.601183 11.292455 -3.805252 -0.000001 -0.000000 0.000000 0.690157 12.814786 -9.700428 0.000000 0.000000 0.000000 17.839855 28.067221 -61.512001 -57.352197 -29.386892 -29.329526 -2.509840 19.581739 26.010315 15.852528 -12.226290 15.981159 -1.153673 11.258099 -8.412005 5.706536 8.483126 -0.820702 0.000002 -0.000002 -0.000000 -1.364790 -7.206517 -8.793116 0.033236 -0.710949 -15.958025 0.074794 -0.269107 -3.735209 -0.000000 -0.000001 -0.000001 1.253970 2.954641 -26.823586 0.431625 -1.287400 -21.434336 0.571736 -1.568820 -25.006122 0.000001 0.000000 -0.000000 1.578057 5.553413 -36.190550 -0.962032 -1.110710 -27.329901 -1.023102 -1.274691 -30.491993 0.000001 -0.000002 0.000002 1.222232 16.439873 2.931262 0.000000 0.000000 0.000000 -60.208281 28.479584 76.380803 52.535428 10.352223 -2.661517 -0.725335 34.527795 -2.792947 55.149577 18.649543 -29.698287 -0.442578 -14.180528 7.313126 21.666996 -29.244507 9.142382 -0.000001 -0.000002 0.000003 5.673384 7.585039 36.844154 1.050470 3.824475 68.900237 0.499581 3.026028 62.196461 0.000000 0.000001 -0.000001 -0.125684 1.886110 45.000763 -1.168996 3.204641 68.417622 -0.936398 1.813615 41.107555 0.000002 0.000000 0.000001 -5.312001 1.216658 58.508814 -0.745210 1.667573 48.011302 -0.816474 1.840617 53.666572 0.000000 -0.000000 -0.000001 -66.304621 -14.944787 19.326956 34.101618 -39.696581 4.293474 8.024339 -0.864950 -30.463532 0.359475 1.827514 -4.531579 0.000000 -0.000001 -0.000000 -14.787901 -27.130550 -30.435186 41.855515 3.035068 8.194160 -27.692302 -11.555660 25.879780 0.118106 -1.636615 0.001953 0.000000 0.000001 -0.000000 
5.539641 27.974907 28.524750 -198.290364 54.508734 188.702062 12.229497 3.311626 -3.362281 10.965558 10.728927 -14.870420 0.000000 0.000000 0.000000 0.112389 14.271527 -10.661716 11.492988 7.964789 9.125445 -9.194663 11.332435 -3.605139 0.000000 0.000000 -0.000000 0.813235 12.488594 -10.557306 0.000000 0.000000 0.000000 13.645977 26.593002 -57.689164 -53.947078 -30.883803 -28.900842 -2.216740 18.855323 25.368735 16.555670 -11.495710 15.265835 -1.153774 11.258139 -8.410830 5.706529 8.483127 -0.820705 -0.000004 -0.000001 -0.000001 -1.394209 -6.959267 -12.216302 0.061266 -0.605616 -13.575346 0.072311 -0.301878 -4.436908 0.000003 -0.000000 0.000000 1.204402 2.854579 -28.821704 0.391329 -1.386580 -23.578633 0.525550 -1.665706 -27.150822 -0.000001 -0.000001 -0.000001 1.504870 5.445202 -38.183384 -1.018044 -1.212283 -29.473991 -1.087925 -1.376234 -32.636170 0.000001 -0.000000 -0.000004 1.273171 15.702844 2.792991 0.000000 0.000000 0.000000 -54.445668 25.923087 69.909868 52.735928 24.416335 -3.568420 -2.348701 28.229705 0.359074 55.149570 18.649534 -29.698281 -0.442579 -14.180530 7.313125 21.666994 -29.244500 9.142375 0.000006 -0.000004 0.000001 5.673382 7.585033 36.844158 1.050472 3.824476 68.900237 0.499588 3.026029 62.196461 -0.000000 0.000002 0.000002 -0.125687 1.886109 45.000770 -1.168995 3.204643 68.417622 -0.936402 1.813614 41.107555 -0.000002 -0.000000 0.000002 -5.312003 1.216658 58.508821 -0.745206 1.667581 48.011302 -0.816469 1.840619 53.666569 0.000003 0.000003 0.000001 -65.509567 -15.301675 20.953554 37.391830 -38.340458 4.288732 5.487596 0.006397 -29.000983 0.257153 1.815667 -4.645043 0.000000 0.000000 0.000000 -17.439515 -25.860992 -31.687980 42.108533 4.802375 8.386053 -26.672736 -10.833705 24.700011 0.117181 -1.459243 0.001739 0.000000 -0.000000 0.000000 
